<?xml version="1.0" encoding="utf-8"?>
<svg  xmlns="http://www.w3.org/2000/svg"  >
    <symbol id="icon-karzina" width="25" height="25" viewBox="0 0 50 50" fill="currentColor">
        <path d="M7.75804 10.9611L0 3.3287L3.38351 0L11.1415 7.63237H47.6075C48.9289 7.63237 50 8.68619 50 9.98612C50 10.2152 49.966 10.4431 49.8993 10.6625L44.1573 29.4925C43.8537 30.4881 42.922 31.17 41.8655 31.17H12.5431V35.8775H38.8607V40.585H10.1505C8.82919 40.585 7.75804 39.531 7.75804 38.2312V10.9611ZM12.5431 12.3399V26.4625H40.0855L44.392 12.3399H12.5431ZM11.3468 50C9.36478 50 7.75804 48.4192 7.75804 46.4694C7.75804 44.5193 9.36478 42.9387 11.3468 42.9387C13.3288 42.9387 14.9356 44.5193 14.9356 46.4694C14.9356 48.4192 13.3288 50 11.3468 50ZM40.057 50C38.0748 50 36.4682 48.4192 36.4682 46.4694C36.4682 44.5193 38.0748 42.9387 40.057 42.9387C42.0389 42.9387 43.6457 44.5193 43.6457 46.4694C43.6457 48.4192 42.0389 50 40.057 50Z" fill="currentColor"/>
    </symbol>

    <symbol id="icon-profile" width="50" height="55" viewBox="0 0 50 50" fill="currentColor" xmlns="http://www.w3.org/2000/svg" xmlns:xlink="http://www.w3.org/1999/xlink">
        <path d="M14.3365 12.3466L14.0765 11.9195C13.9082 12.022 13.8158 12.2137 13.8405 12.4092C13.8651 12.6046 14.0022 12.7674 14.1907 12.8249L14.3365 12.3466ZM9.6634 12.3466L9.80923 12.8249C9.99769 12.7674 10.1348 12.6046 10.1595 12.4092C10.1841 12.2137 10.0917 12.022 9.92339 11.9195L9.6634 12.3466ZM4.06161 19.002L3.56544 18.9402L4.06161 19.002ZM19.9383 19.002L20.4345 18.9402L19.9383 19.002ZM16 8.5C16 9.94799 15.2309 11.2168 14.0765 11.9195L14.5965 12.7737C16.0365 11.8971 17 10.3113 17 8.5H16ZM12 4.5C14.2091 4.5 16 6.29086 16 8.5H17C17 5.73858 14.7614 3.5 12 3.5V4.5ZM7.99996 8.5C7.99996 6.29086 9.79082 4.5 12 4.5V3.5C9.23854 3.5 6.99996 5.73858 6.99996 8.5H7.99996ZM9.92339 11.9195C8.76904 11.2168 7.99996 9.948 7.99996 8.5H6.99996C6.99996 10.3113 7.96342 11.8971 9.40342 12.7737L9.92339 11.9195ZM9.51758 11.8683C6.36083 12.8309 3.98356 15.5804 3.56544 18.9402L4.55778 19.0637C4.92638 16.1018 7.02381 13.6742 9.80923 12.8249L9.51758 11.8683ZM3.56544 18.9402C3.45493 19.8282 4.19055 20.5 4.99996 20.5V19.5C4.70481 19.5 4.53188 19.2719 4.55778 19.0637L3.56544 18.9402ZM4.99996 20.5H19V19.5H4.99996V20.5ZM19 20.5C19.8094 20.5 20.545 19.8282 20.4345 18.9402L19.4421 19.0637C19.468 19.2719 19.2951 19.5 19 19.5V20.5ZM20.4345 18.9402C20.0164 15.5804 17.6391 12.8309 14.4823 11.8683L14.1907 12.8249C16.9761 13.6742 19.0735 16.1018 19.4421 19.0637L20.4345 18.9402Z" fill="currentColor"/>
    </symbol>

    <symbol id="icon-edit" width="40" height="40" viewBox="0 0 35 35" fill="currentColor" xmlns="http://www.w3.org/2000/svg" xmlns:xlink="http://www.w3.org/1999/xlink">
        <path fill-rule="evenodd" clip-rule="evenodd" d="M19.186 2.09c.521.25 1.136.612 1.625 1.101.49.49.852 1.104 1.1 1.625.313.654.11 1.408-.401 1.92l-7.214 7.213c-.31.31-.688.541-1.105.675l-4.222 1.353a.75.75 0 0 1-.943-.944l1.353-4.221a2.75 2.75 0 0 1 .674-1.105l7.214-7.214c.512-.512 1.266-.714 1.92-.402zm.211 2.516a3.608 3.608 0 0 0-.828-.586l-6.994 6.994a1.002 1.002 0 0 0-.178.241L9.9 14.102l2.846-1.496c.09-.047.171-.107.242-.178l6.994-6.994a3.61 3.61 0 0 0-.586-.828zM4.999 5.5A.5.5 0 0 1 5.47 5l5.53.005a1 1 0 0 0 0-2L5.5 3A2.5 2.5 0 0 0 3 5.5v12.577c0 .76.082 1.185.319 1.627.224.419.558.754.977.978.442.236.866.318 1.627.318h12.154c.76 0 1.185-.082 1.627-.318.42-.224.754-.559.978-.978.236-.442.318-.866.318-1.627V13a1 1 0 1 0-2 0v5.077c0 .459-.021.571-.082.684a.364.364 0 0 1-.157.157c-.113.06-.225.082-.684.082H5.923c-.459 0-.57-.022-.684-.082a.363.363 0 0 1-.157-.157c-.06-.113-.082-.225-.082-.684V5.5z" fill="currentColor"/>
    </symbol>
</svg>
